# xmcd CD database file
#
# Track frame offsets:
#	150
#	27851
#	45015
#	68962
#	81337
#	99160
#	121234
#	145503
#	160734
#	180514
#	204771
#	236334
#	255002
#	288828
#	307890
#	324640
#
# Disc length: 4488 seconds
#
# Revision: 0
# Processed by: cddbd v1.5.2PL0 Copyright (c) Steve Scherf et al.
# Submitted via: CDex 1.70beta2
#
DISCID=b6118610
DTITLE=Seasick Steve - Sonic Soul Surfer Deluxe
DYEAR=2015
DGENRE=Blues
TTITLE0=Roy's Gang
TTITLE1=Bring It On
TTITLE2=Dog Gonna Play
TTITLE3=In Peaceful Dreams
TTITLE4=Summertime Boy
TTITLE5=Swamp Dog
TTITLE6=Sonic Soul Boogie
TTITLE7=Right On Time
TTITLE8=Barracuda '68
TTITLE9=We Be Moving
TTITLE10=Your Name
TTITLE11=Heart Full of Scars
TTITLE12=Don't Ask Me
TTITLE13=Baby Please Don't Go
TTITLE14=Man's Best Friend
TTITLE15=Silver Dagger
EXTD=YEAR: 2015
EXTT0=
EXTT1=
EXTT2=
EXTT3=
EXTT4=
EXTT5=
EXTT6=
EXTT7=
EXTT8=
EXTT9=
EXTT10=
EXTT11=
EXTT12=
EXTT13=
EXTT14=
EXTT15=
PLAYORDER=
